<svg xmlns="http://www.w3.org/2000/svg" xmlns:xlink="http://www.w3.org/1999/xlink" width="500" zoomAndPan="magnify" viewBox="0 0 375 374.999991" height="500" preserveAspectRatio="xMidYMid meet" version="1.0"><defs><clipPath id="7fb135fecc"><path d="M 116.054688 3 L 248.804688 3 L 248.804688 373 L 116.054688 373 Z M 116.054688 3 " clip-rule="nonzero"/></clipPath></defs><g clip-path="url(#7fb135fecc)"><path fill="#000000" d="M 132.066406 7.46875 C 135.917969 1.796875 140.472656 3.003906 144.820312 4.53125 C 156.867188 8.703125 167.707031 14.875 176.582031 24.277344 C 204.820312 54.246094 223.152344 89.738281 233.320312 129.316406 C 243.75 169.894531 241.457031 209.941406 224.796875 248.667969 C 216.953125 266.886719 208.109375 284.691406 199.414062 303.320312 C 201.441406 302.644531 204.023438 302.027344 206.464844 300.96875 C 223.066406 293.886719 226.972656 294.503906 240.078125 307.167969 C 243.015625 309.988281 245.425781 313.339844 248.804688 317.277344 C 245.394531 319.390625 242.984375 320.976562 240.488281 322.417969 C 213.664062 337.960938 186.542969 353.035156 160.15625 369.339844 C 153.753906 373.277344 148.816406 372.925781 143.378906 370.339844 C 132.449219 365.109375 124.632812 355.914062 117.90625 346.335938 C 115.554688 342.984375 116.320312 336.726562 116.996094 331.996094 C 122.078125 297.355469 123.929688 262.566406 121.136719 227.6875 C 120.257812 216.816406 117.730469 206.09375 115.820312 194.339844 C 119.285156 193.046875 123.136719 195.191406 126.398438 197.25 C 141.707031 206.917969 154.457031 218.667969 157.160156 237.945312 C 158.425781 247.050781 159.777344 256.132812 160.949219 265.238281 C 161.480469 269.292969 161.597656 273.40625 161.980469 278.433594 C 182.195312 259.832031 201.558594 178.09375 196.210938 136.632812 C 189.714844 86.214844 167.386719 43.433594 132.066406 7.46875 Z M 132.066406 7.46875 " fill-opacity="1" fill-rule="nonzero"/></g></svg>